  0
SECTION
  2
HEADER
  9
$ACADVER
  1
AC1009
  9
$DWGCODEPAGE
  3
ansi_1252
  9
$INSBASE
 10
0.0
 20
0.0
 30
0.0
  9
$EXTMIN
 10
9.825173125410625
 20
13.56085304289274
 30
13.99999894174505
  9
$EXTMAX
 10
116.1996135321789
 20
67.52961421589036
 30
13.99999894174598
  9
$LIMMIN
 10
0.0
 20
0.0
  9
$LIMMAX
 10
420.0
 20
297.0
  9
$ORTHOMODE
 70
     0
  9
$REGENMODE
 70
     1
  9
$FILLMODE
 70
     1
  9
$QTEXTMODE
 70
     0
  9
$MIRRTEXT
 70
     1
  9
$DRAGMODE
 70
     2
  9
$LTSCALE
 40
1.0
  9
$OSMODE
 70
    37
  9
$ATTMODE
 70
     1
  9
$TEXTSIZE
 40
2.5
  9
$TRACEWID
 40
1.0
  9
$TEXTSTYLE
  7
STANDARD
  9
$CLAYER
  8
0
  9
$CELTYPE
  6
BYLAYER
  9
$CECOLOR
 62
   256
  9
$DIMSCALE
 40
1.0
  9
$DIMASZ
 40
2.5
  9
$DIMEXO
 40
0.625
  9
$DIMDLI
 40
3.75
  9
$DIMRND
 40
0.0
  9
$DIMDLE
 40
0.0
  9
$DIMEXE
 40
1.25
  9
$DIMTP
 40
0.0
  9
$DIMTM
 40
0.0
  9
$DIMTXT
 40
2.5
  9
$DIMCEN
 40
2.5
  9
$DIMTSZ
 40
0.0
  9
$DIMTOL
 70
     0
  9
$DIMLIM
 70
     0
  9
$DIMTIH
 70
     1
  9
$DIMTOH
 70
     0
  9
$DIMSE1
 70
     0
  9
$DIMSE2
 70
     0
  9
$DIMTAD
 70
     1
  9
$DIMZIN
 70
     8
  9
$DIMBLK
  1

  9
$DIMASO
 70
     1
  9
$DIMSHO
 70
     1
  9
$DIMPOST
  1
mm
  9
$DIMAPOST
  1

  9
$DIMALT
 70
     0
  9
$DIMALTD
 70
     3
  9
$DIMALTF
 40
0.0393700787401575
  9
$DIMLFAC
 40
1.0
  9
$DIMTOFL
 70
     1
  9
$DIMTVP
 40
0.0
  9
$DIMTIX
 70
     0
  9
$DIMSOXD
 70
     0
  9
$DIMSAH
 70
     0
  9
$DIMBLK1
  1

  9
$DIMBLK2
  1

  9
$DIMSTYLE
  2
ISO-25
  9
$DIMCLRD
 70
     0
  9
$DIMCLRE
 70
     0
  9
$DIMCLRT
 70
     0
  9
$DIMTFAC
 40
1.0
  9
$DIMGAP
 40
0.625
  9
$LUNITS
 70
     2
  9
$LUPREC
 70
     4
  9
$SKETCHINC
 40
1.0
  9
$FILLETRAD
 40
10.0
  9
$AUNITS
 70
     0
  9
$AUPREC
 70
     0
  9
$MENU
  1
.
  9
$ELEVATION
 40
0.0
  9
$PELEVATION
 40
0.0
  9
$THICKNESS
 40
0.0
  9
$LIMCHECK
 70
     0
  9
$CHAMFERA
 40
0.0
  9
$CHAMFERB
 40
0.0
  9
$SKPOLY
 70
     0
  9
$TDCREATE
 40
2458080.007085729
  9
$TDUPDATE
 40
2458080.007085787
  9
$TDINDWG
 40
0.0000000116
  9
$TDUSRTIMER
 40
0.0000000116
  9
$USRTIMER
 70
     1
  9
$ANGBASE
 50
0.0
  9
$ANGDIR
 70
     0
  9
$PDMODE
 70
     0
  9
$PDSIZE
 40
0.0
  9
$PLINEWID
 40
0.0
  9
$COORDS
 70
     1
  9
$SPLFRAME
 70
     0
  9
$SPLINETYPE
 70
     6
  9
$SPLINESEGS
 70
     8
  9
$ATTDIA
 70
     0
  9
$ATTREQ
 70
     1
  9
$HANDLING
 70
     1
  9
$HANDSEED
  5
208
  9
$SURFTAB1
 70
     6
  9
$SURFTAB2
 70
     6
  9
$SURFTYPE
 70
     6
  9
$SURFU
 70
     6
  9
$SURFV
 70
     6
  9
$UCSNAME
  2

  9
$UCSORG
 10
0.0
 20
0.0
 30
0.0
  9
$UCSXDIR
 10
1.0
 20
0.0
 30
0.0
  9
$UCSYDIR
 10
0.0
 20
1.0
 30
0.0
  9
$PUCSNAME
  2

  9
$PUCSORG
 10
0.0
 20
0.0
 30
0.0
  9
$PUCSXDIR
 10
1.0
 20
0.0
 30
0.0
  9
$PUCSYDIR
 10
0.0
 20
1.0
 30
0.0
  9
$USERI1
 70
     0
  9
$USERI2
 70
     0
  9
$USERI3
 70
     0
  9
$USERI4
 70
     0
  9
$USERI5
 70
     0
  9
$USERR1
 40
0.0
  9
$USERR2
 40
0.0
  9
$USERR3
 40
0.0
  9
$USERR4
 40
0.0
  9
$USERR5
 40
0.0
  9
$WORLDVIEW
 70
     1
  9
$SHADEDGE
 70
     3
  9
$SHADEDIF
 70
    70
  9
$TILEMODE
 70
     1
  9
$MAXACTVP
 70
    64
  9
$PLIMCHECK
 70
     0
  9
$PEXTMIN
 10
1.000000000000000E+20
 20
1.000000000000000E+20
 30
1.000000000000000E+20
  9
$PEXTMAX
 10
-1.000000000000000E+20
 20
-1.000000000000000E+20
 30
-1.000000000000000E+20
  9
$PLIMMIN
 10
0.0
 20
0.0
  9
$PLIMMAX
 10
420.0
 20
297.0
  9
$UNITMODE
 70
     0
  9
$VISRETAIN
 70
     1
  9
$PLINEGEN
 70
     0
  9
$PSLTSCALE
 70
     1
  0
ENDSEC
  0
SECTION
  2
TABLES
  0
TABLE
  2
VPORT
 70
     1
  0
VPORT
  2
*ACTIVE
 70
     0
 10
0.0
 20
0.0
 11
1.0
 21
1.0
 12
63.01239332879477
 22
40.54523362939155
 13
0.0
 23
0.0
 14
10.0
 24
10.0
 15
10.0
 25
10.0
 16
0.0
 26
0.0
 36
1.0
 17
0.0
 27
0.0
 37
0.0
 40
53.96876117299762
 41
1.971037283323653
 42
50.0
 43
0.0
 44
0.0
 50
0.0
 51
0.0
 71
     0
 72
   100
 73
     1
 74
     3
 75
     0
 76
     0
 77
     0
 78
     0
  0
ENDTAB
  0
TABLE
  2
LTYPE
 70
     1
  0
LTYPE
  2
CONTINUOUS
 70
     0
  3
Solid line
 72
    65
 73
     0
 40
0.0
  0
ENDTAB
  0
TABLE
  2
LAYER
 70
    10
  0
LAYER
  2
0
 70
     0
 62
     7
  6
CONTINUOUS
  0
LAYER
  2
LAYER1
 70
     0
 62
     7
  6
CONTINUOUS
  0
LAYER
  2
LAYER2
 70
     0
 62
     7
  6
CONTINUOUS
  0
LAYER
  2
LAYER3
 70
     0
 62
     7
  6
CONTINUOUS
  0
LAYER
  2
LAYER4
 70
     0
 62
     7
  6
CONTINUOUS
  0
LAYER
  2
LAYER5
 70
     0
 62
     7
  6
CONTINUOUS
  0
LAYER
  2
LAYER6
 70
     0
 62
     7
  6
CONTINUOUS
  0
LAYER
  2
LAYER7
 70
     0
 62
     7
  6
CONTINUOUS
  0
LAYER
  2
LAYER8
 70
     0
 62
     7
  6
CONTINUOUS
  0
LAYER
  2
LAYER9
 70
     0
 62
     7
  6
CONTINUOUS
  0
ENDTAB
  0
TABLE
  2
STYLE
 70
     1
  0
STYLE
  2
STANDARD
 70
     0
 40
0.0
 41
1.0
 50
0.0
 71
     0
 42
2.5
  3
txt
  4

  0
ENDTAB
  0
TABLE
  2
VIEW
 70
     0
  0
ENDTAB
  0
TABLE
  2
UCS
 70
     0
  0
ENDTAB
  0
TABLE
  2
APPID
 70
     1
  0
APPID
  2
ACAD
 70
     0
  0
ENDTAB
  0
TABLE
  2
DIMSTYLE
 70
     1
  0
DIMSTYLE
  2
ISO-25
 70
     0
  3

  4

  5

  6

  7

 40
1.0
 41
2.5
 42
0.625
 43
3.75
 44
1.25
 45
0.0
 46
0.0
 47
0.0
 48
0.0
140
2.5
141
2.5
142
0.0
143
0.03937007874016
144
1.0
145
0.0
146
1.0
147
0.625
 71
     0
 72
     0
 73
     0
 74
     0
 75
     0
 76
     0
 77
     1
 78
     8
170
     0
171
     3
172
     1
173
     0
174
     0
175
     0
176
     0
177
     0
178
     0
  0
ENDTAB
  0
ENDSEC
  0
SECTION
  2
BLOCKS
  0
BLOCK
  8
0
  2
$MODEL_SPACE
 70
     0
 10
0.0
 20
0.0
 30
0.0
  3
$MODEL_SPACE
  1

  0
ENDBLK
  5
21
  8
0
  0
BLOCK
 67
     1
  8
0
  2
$PAPER_SPACE
 70
     0
 10
0.0
 20
0.0
 30
0.0
  3
$PAPER_SPACE
  1

  0
ENDBLK
  5
1D
 67
     1
  8
0
  0
ENDSEC
  0
SECTION
  2
ENTITIES
  0
CIRCLE
  5
73
  8
LAYER9
 10
16.50008873394498
 20
53.75013610682868
 30
-0.0000000000000008
 40
4.0
  0
CIRCLE
  5
74
  8
LAYER9
 10
30.99989036968801
 20
53.75008996404881
 30
-0.0000000000000008
 40
1.749999999999999
  0
ARC
  5
75
  8
LAYER9
 10
43.4000130301038
 20
61.9623638002911
 30
0.0000000000000001
 40
2.46
 50
90.0
 51
180.0
  0
LINE
  5
76
  8
LAYER9
 10
65.48001303010379
 20
64.42236380029111
 30
0.0
 11
43.40001303010379
 21
64.42236380029111
 31
0.0
  0
ARC
  5
77
  8
LAYER9
 10
65.48001303010379
 20
61.9623638002911
 30
0.0000000000000008
 40
2.46
 50
360.0
 51
90.0000000000003
  0
LINE
  5
78
  8
LAYER9
 10
67.9400130301038
 20
44.8823638002911
 30
0.0
 11
67.9400130301038
 21
61.9623638002911
 31
0.0
  0
ARC
  5
79
  8
LAYER9
 10
65.48001303010379
 20
44.8823638002911
 30
-0.0000000000000005
 40
2.46
 50
269.9999999999997
 51
360.0
  0
LINE
  5
7A
  8
LAYER9
 10
43.4000130301038
 20
42.42236380029112
 30
0.0
 11
65.48001303010379
 21
42.42236380029112
 31
0.0
  0
ARC
  5
7B
  8
LAYER9
 10
43.4000130301038
 20
44.8823638002911
 30
0.0000000000000004
 40
2.46
 50
180.0
 51
270.0
  0
LINE
  5
7C
  8
LAYER9
 10
40.94001303010379
 20
61.9623638002911
 30
0.0
 11
40.94001303010379
 21
44.8823638002911
 31
0.0
  0
LINE
  5
7D
  8
LAYER9
 10
88.59041252802865
 20
66.33065452817954
 30
0.0
 11
88.59041252802865
 21
61.39937289945099
 31
0.0
  0
POLYLINE
  5
7E
  8
LAYER9
 66
     1
 10
0.0
 20
0.0
 30
0.0000000000000025
  0
VERTEX
  5
C6
  8
LAYER9
 10
89.78937221573953
 20
67.52961421589038
 30
0.0000000000000025
  0
VERTEX
  5
C7
  8
LAYER9
 10
89.55535615494189
 20
67.50658727883128
 30
0.0000000000000025
  0
VERTEX
  5
C8
  8
LAYER9
 10
89.33039324607908
 20
67.4383894345726
 30
0.0000000000000025
  0
VERTEX
  5
C9
  8
LAYER9
 10
89.1231096822884
 20
67.32763572654126
 30
0.0000000000000025
  0
VERTEX
  5
CA
  8
LAYER9
 10
88.94145374297511
 20
67.17857300094394
 30
0.0000000000000025
  0
VERTEX
  5
CB
  8
LAYER9
 10
88.79239101737781
 20
66.99691706163065
 30
0.0000000000000025
  0
VERTEX
  5
CC
  8
LAYER9
 10
88.68163730934644
 20
66.78963349783999
 30
0.0000000000000025
  0
VERTEX
  5
CD
  8
LAYER9
 10
88.61343946508777
 20
66.56467058897718
 30
0.0000000000000025
  0
VERTEX
  5
CE
  8
LAYER9
 10
88.59041252802868
 20
66.33065452817954
 30
0.0000000000000025
  0
SEQEND
  5
1E8
  8
LAYER9
  0
LINE
  5
7F
  8
LAYER9
 10
89.78937221573953
 20
67.52961421589033
 30
0.0
 11
98.72065384446803
 21
67.52961421589033
 31
0.0
  0
POLYLINE
  5
80
  8
LAYER9
 66
     1
 10
0.0
 20
0.0
 30
-0.0000000000000098
  0
VERTEX
  5
CF
  8
LAYER9
 10
99.91961353217886
 20
66.33065452817952
 30
-0.0000000000000098
  0
VERTEX
  5
D0
  8
LAYER9
 10
99.89658659511979
 20
66.56467058897715
 30
-0.0000000000000098
  0
VERTEX
  5
D1
  8
LAYER9
 10
99.8283887508611
 20
66.78963349783997
 30
-0.0000000000000098
  0
VERTEX
  5
D2
  8
LAYER9
 10
99.71763504282974
 20
66.99691706163064
 30
-0.0000000000000098
  0
VERTEX
  5
D3
  8
LAYER9
 10
99.56857231723242
 20
67.17857300094393
 30
-0.0000000000000098
  0
VERTEX
  5
D4
  8
LAYER9
 10
99.38691637791915
 20
67.32763572654125
 30
-0.0000000000000098
  0
VERTEX
  5
D5
  8
LAYER9
 10
99.17963281412848
 20
67.43838943457258
 30
-0.0000000000000098
  0
VERTEX
  5
D6
  8
LAYER9
 10
98.95466990526567
 20
67.50658727883128
 30
-0.0000000000000098
  0
VERTEX
  5
D7
  8
LAYER9
 10
98.72065384446803
 20
67.52961421589036
 30
-0.0000000000000098
  0
SEQEND
  5
1E9
  8
LAYER9
  0
LINE
  5
81
  8
LAYER9
 10
99.91961353217889
 20
61.39937289945101
 30
0.0
 11
99.91961353217889
 21
66.33065452817954
 31
0.0
  0
POLYLINE
  5
82
  8
LAYER9
 66
     1
 10
0.0
 20
0.0
 30
-0.0000000000000028
  0
VERTEX
  5
D8
  8
LAYER9
 10
98.72065384446806
 20
60.20041321174018
 30
-0.0000000000000028
  0
VERTEX
  5
D9
  8
LAYER9
 10
98.95466990526569
 20
60.22344014879927
 30
-0.0000000000000028
  0
VERTEX
  5
DA
  8
LAYER9
 10
99.1796328141285
 20
60.29163799305796
 30
-0.0000000000000028
  0
VERTEX
  5
DB
  8
LAYER9
 10
99.38691637791916
 20
60.40239170108931
 30
-0.0000000000000028
  0
VERTEX
  5
DC
  8
LAYER9
 10
99.56857231723244
 20
60.55145442668662
 30
-0.0000000000000028
  0
VERTEX
  5
DD
  8
LAYER9
 10
99.71763504282976
 20
60.73311036599991
 30
-0.0000000000000028
  0
VERTEX
  5
DE
  8
LAYER9
 10
99.8283887508611
 20
60.94039392979057
 30
-0.0000000000000028
  0
VERTEX
  5
DF
  8
LAYER9
 10
99.89658659511979
 20
61.16535683865338
 30
-0.0000000000000028
  0
VERTEX
  5
E0
  8
LAYER9
 10
99.91961353217887
 20
61.39937289945101
 30
-0.0000000000000028
  0
SEQEND
  5
1EA
  8
LAYER9
  0
LINE
  5
83
  8
LAYER9
 10
98.72065384446806
 20
60.20041321174018
 30
0.0
 11
89.7893722157395
 21
60.20041321174018
 31
0.0
  0
POLYLINE
  5
84
  8
LAYER9
 66
     1
 10
0.0
 20
0.0
 30
0.0000000000000096
  0
VERTEX
  5
E1
  8
LAYER9
 10
88.5904125280287
 20
61.399372899451
 30
0.0000000000000096
  0
VERTEX
  5
E2
  8
LAYER9
 10
88.61343946508778
 20
61.16535683865337
 30
0.0000000000000096
  0
VERTEX
  5
E3
  8
LAYER9
 10
88.68163730934647
 20
60.94039392979057
 30
0.0000000000000096
  0
VERTEX
  5
E4
  8
LAYER9
 10
88.79239101737781
 20
60.7331103659999
 30
0.0000000000000096
  0
VERTEX
  5
E5
  8
LAYER9
 10
88.94145374297511
 20
60.55145442668661
 30
0.0000000000000096
  0
VERTEX
  5
E6
  8
LAYER9
 10
89.1231096822884
 20
60.4023917010893
 30
0.0000000000000096
  0
VERTEX
  5
E7
  8
LAYER9
 10
89.33039324607905
 20
60.29163799305795
 30
0.0000000000000096
  0
VERTEX
  5
E8
  8
LAYER9
 10
89.55535615494188
 20
60.22344014879926
 30
0.0000000000000096
  0
VERTEX
  5
E9
  8
LAYER9
 10
89.7893722157395
 20
60.20041321174018
 30
0.0000000000000096
  0
SEQEND
  5
1EB
  8
LAYER9
  0
LINE
  5
85
  8
LAYER9
 10
115.0006538444681
 20
60.20041321174017
 30
0.0
 11
106.0693722157395
 21
60.20041321174017
 31
0.0
  0
POLYLINE
  5
86
  8
LAYER9
 66
     1
 10
0.0
 20
0.0
 30
0.0000000000000098
  0
VERTEX
  5
EA
  8
LAYER9
 10
104.8704125280287
 20
61.39937289945098
 30
0.0000000000000098
  0
VERTEX
  5
EB
  8
LAYER9
 10
104.8934394650878
 20
61.16535683865335
 30
0.0000000000000098
  0
VERTEX
  5
EC
  8
LAYER9
 10
104.9616373093465
 20
60.94039392979053
 30
0.0000000000000098
  0
VERTEX
  5
ED
  8
LAYER9
 10
105.0723910173778
 20
60.73311036599987
 30
0.0000000000000098
  0
VERTEX
  5
EE
  8
LAYER9
 10
105.2214537429751
 20
60.55145442668658
 30
0.0000000000000098
  0
VERTEX
  5
EF
  8
LAYER9
 10
105.4031096822884
 20
60.40239170108927
 30
0.0000000000000098
  0
VERTEX
  5
F0
  8
LAYER9
 10
105.6103932460791
 20
60.29163799305793
 30
0.0000000000000098
  0
VERTEX
  5
F1
  8
LAYER9
 10
105.8353561549419
 20
60.22344014879925
 30
0.0000000000000098
  0
VERTEX
  5
F2
  8
LAYER9
 10
106.0693722157395
 20
60.20041321174016
 30
0.0000000000000098
  0
SEQEND
  5
1EC
  8
LAYER9
  0
LINE
  5
87
  8
LAYER9
 10
104.8704125280287
 20
61.39937289945098
 30
0.0
 11
104.8704125280287
 21
66.33065452817955
 31
0.0
  0
POLYLINE
  5
88
  8
LAYER9
 66
     1
 10
0.0
 20
0.0
 30
0.0000000000000027
  0
VERTEX
  5
F3
  8
LAYER9
 10
106.0693722157395
 20
67.52961421589038
 30
0.0000000000000027
  0
VERTEX
  5
F4
  8
LAYER9
 10
105.8353561549419
 20
67.50658727883129
 30
0.0000000000000027
  0
VERTEX
  5
F5
  8
LAYER9
 10
105.6103932460791
 20
67.43838943457261
 30
0.0000000000000027
  0
VERTEX
  5
F6
  8
LAYER9
 10
105.4031096822884
 20
67.32763572654126
 30
0.0000000000000027
  0
VERTEX
  5
F7
  8
LAYER9
 10
105.2214537429751
 20
67.17857300094394
 30
0.0000000000000027
  0
VERTEX
  5
F8
  8
LAYER9
 10
105.0723910173778
 20
66.99691706163065
 30
0.0000000000000027
  0
VERTEX
  5
F9
  8
LAYER9
 10
104.9616373093464
 20
66.78963349784
 30
0.0000000000000027
  0
VERTEX
  5
FA
  8
LAYER9
 10
104.8934394650878
 20
66.56467058897718
 30
0.0000000000000027
  0
VERTEX
  5
FB
  8
LAYER9
 10
104.8704125280287
 20
66.33065452817955
 30
0.0000000000000027
  0
SEQEND
  5
1ED
  8
LAYER9
  0
LINE
  5
89
  8
LAYER9
 10
115.0006538444681
 20
67.52961421589035
 30
0.0
 11
106.0693722157395
 21
67.52961421589035
 31
0.0
  0
POLYLINE
  5
8A
  8
LAYER9
 66
     1
 10
0.0
 20
0.0
 30
-0.0000000000000096
  0
VERTEX
  5
FC
  8
LAYER9
 10
116.1996135321789
 20
66.33065452817954
 30
-0.0000000000000096
  0
VERTEX
  5
FD
  8
LAYER9
 10
116.1765865951198
 20
66.56467058897717
 30
-0.0000000000000096
  0
VERTEX
  5
FE
  8
LAYER9
 10
116.1083887508611
 20
66.78963349783997
 30
-0.0000000000000096
  0
VERTEX
  5
FF
  8
LAYER9
 10
115.9976350428297
 20
66.99691706163063
 30
-0.0000000000000096
  0
VERTEX
  5
100
  8
LAYER9
 10
115.8485723172324
 20
67.17857300094391
 30
-0.0000000000000096
  0
VERTEX
  5
101
  8
LAYER9
 10
115.6669163779192
 20
67.32763572654123
 30
-0.0000000000000096
  0
VERTEX
  5
102
  8
LAYER9
 10
115.4596328141285
 20
67.43838943457257
 30
-0.0000000000000096
  0
VERTEX
  5
103
  8
LAYER9
 10
115.2346699052657
 20
67.50658727883126
 30
-0.0000000000000096
  0
VERTEX
  5
104
  8
LAYER9
 10
115.0006538444681
 20
67.52961421589036
 30
-0.0000000000000096
  0
SEQEND
  5
1EE
  8
LAYER9
  0
LINE
  5
8B
  8
LAYER9
 10
116.1996135321789
 20
66.33065452817954
 30
0.0
 11
116.1996135321789
 21
61.39937289945097
 31
0.0
  0
POLYLINE
  5
8C
  8
LAYER9
 66
     1
 10
0.0
 20
0.0
 30
-0.0000000000000026
  0
VERTEX
  5
105
  8
LAYER9
 10
115.0006538444681
 20
60.20041321174017
 30
-0.0000000000000026
  0
VERTEX
  5
106
  8
LAYER9
 10
115.2346699052657
 20
60.22344014879926
 30
-0.0000000000000026
  0
VERTEX
  5
107
  8
LAYER9
 10
115.4596328141285
 20
60.29163799305795
 30
-0.0000000000000026
  0
VERTEX
  5
108
  8
LAYER9
 10
115.6669163779192
 20
60.40239170108929
 30
-0.0000000000000026
  0
VERTEX
  5
109
  8
LAYER9
 10
115.8485723172324
 20
60.5514544266866
 30
-0.0000000000000026
  0
VERTEX
  5
10A
  8
LAYER9
 10
115.9976350428298
 20
60.73311036599988
 30
-0.0000000000000026
  0
VERTEX
  5
10B
  8
LAYER9
 10
116.1083887508611
 20
60.94039392979055
 30
-0.0000000000000026
  0
VERTEX
  5
10C
  8
LAYER9
 10
116.1765865951198
 20
61.16535683865335
 30
-0.0000000000000026
  0
VERTEX
  5
10D
  8
LAYER9
 10
116.1996135321789
 20
61.39937289945098
 30
-0.0000000000000026
  0
SEQEND
  5
1EF
  8
LAYER9
  0
LINE
  5
8D
  8
LAYER9
 10
104.8504124925131
 20
46.83065456369508
 30
0.0
 11
104.8504124925131
 21
41.89937286393548
 31
0.0
  0
POLYLINE
  5
8E
  8
LAYER9
 66
     1
 10
0.0
 20
0.0
 30
0.0000000000000022
  0
VERTEX
  5
10E
  8
LAYER9
 10
106.049372180224
 20
48.0296142514059
 30
0.0000000000000022
  0
VERTEX
  5
10F
  8
LAYER9
 10
105.8153561194264
 20
48.00658731434681
 30
0.0000000000000022
  0
VERTEX
  5
110
  8
LAYER9
 10
105.5903932105635
 20
47.93838947008813
 30
0.0000000000000022
  0
VERTEX
  5
111
  8
LAYER9
 10
105.3831096467729
 20
47.82763576205678
 30
0.0000000000000022
  0
VERTEX
  5
112
  8
LAYER9
 10
105.2014537074596
 20
47.67857303645948
 30
0.0000000000000022
  0
VERTEX
  5
113
  8
LAYER9
 10
105.0523909818623
 20
47.49691709714619
 30
0.0000000000000022
  0
VERTEX
  5
114
  8
LAYER9
 10
104.9416372738309
 20
47.28963353335553
 30
0.0000000000000022
  0
VERTEX
  5
115
  8
LAYER9
 10
104.8734394295722
 20
47.06467062449271
 30
0.0000000000000022
  0
VERTEX
  5
116
  8
LAYER9
 10
104.8504124925132
 20
46.83065456369508
 30
0.0000000000000022
  0
SEQEND
  5
1F0
  8
LAYER9
  0
LINE
  5
8F
  8
LAYER9
 10
114.9806538799836
 20
48.0296142514059
 30
0.0
 11
106.049372180224
 21
48.0296142514059
 31
0.0
  0
POLYLINE
  5
90
  8
LAYER9
 66
     1
 10
0.0
 20
0.0
 30
-0.0000000000000101
  0
VERTEX
  5
117
  8
LAYER9
 10
116.1796135676944
 20
46.83065456369507
 30
-0.0000000000000101
  0
VERTEX
  5
118
  8
LAYER9
 10
116.1565866306353
 20
47.0646706244927
 30
-0.0000000000000101
  0
VERTEX
  5
119
  8
LAYER9
 10
116.0883887863766
 20
47.28963353335551
 30
-0.0000000000000101
  0
VERTEX
  5
11A
  8
LAYER9
 10
115.9776350783452
 20
47.49691709714617
 30
-0.0000000000000101
  0
VERTEX
  5
11B
  8
LAYER9
 10
115.8285723527479
 20
47.67857303645946
 30
-0.0000000000000101
  0
VERTEX
  5
11C
  8
LAYER9
 10
115.6469164134347
 20
47.82763576205676
 30
-0.0000000000000101
  0
VERTEX
  5
11D
  8
LAYER9
 10
115.439632849644
 20
47.93838947008811
 30
-0.0000000000000101
  0
VERTEX
  5
11E
  8
LAYER9
 10
115.2146699407812
 20
48.0065873143468
 30
-0.0000000000000101
  0
VERTEX
  5
11F
  8
LAYER9
 10
114.9806538799836
 20
48.0296142514059
 30
-0.0000000000000101
  0
SEQEND
  5
1F1
  8
LAYER9
  0
LINE
  5
91
  8
LAYER9
 10
116.1796135676944
 20
46.83065456369506
 30
0.0
 11
116.1796135676944
 21
41.89937286393548
 31
0.0
  0
POLYLINE
  5
92
  8
LAYER9
 66
     1
 10
0.0
 20
0.0
 30
-0.0000000000000017
  0
VERTEX
  5
120
  8
LAYER9
 10
114.9806538799836
 20
40.70041317622467
 30
-0.0000000000000017
  0
VERTEX
  5
121
  8
LAYER9
 10
115.2146699407812
 20
40.72344011328376
 30
-0.0000000000000017
  0
VERTEX
  5
122
  8
LAYER9
 10
115.439632849644
 20
40.79163795754244
 30
-0.0000000000000017
  0
VERTEX
  5
123
  8
LAYER9
 10
115.6469164134347
 20
40.90239166557379
 30
-0.0000000000000017
  0
VERTEX
  5
124
  8
LAYER9
 10
115.828572352748
 20
41.0514543911711
 30
-0.0000000000000017
  0
VERTEX
  5
125
  8
LAYER9
 10
115.9776350783453
 20
41.23311033048439
 30
-0.0000000000000017
  0
VERTEX
  5
126
  8
LAYER9
 10
116.0883887863766
 20
41.44039389427505
 30
-0.0000000000000017
  0
VERTEX
  5
127
  8
LAYER9
 10
116.1565866306353
 20
41.66535680313787
 30
-0.0000000000000017
  0
VERTEX
  5
128
  8
LAYER9
 10
116.1796135676944
 20
41.8993728639355
 30
-0.0000000000000017
  0
SEQEND
  5
1F2
  8
LAYER9
  0
LINE
  5
93
  8
LAYER9
 10
114.9806538799836
 20
40.70041317622466
 30
0.0
 11
106.049372180224
 21
40.70041317622466
 31
0.0
  0
POLYLINE
  5
94
  8
LAYER9
 66
     1
 10
0.0
 20
0.0
 30
0.0000000000000107
  0
VERTEX
  5
129
  8
LAYER9
 10
104.8504124925132
 20
41.89937286393549
 30
0.0000000000000107
  0
VERTEX
  5
12A
  8
LAYER9
 10
104.8734394295722
 20
41.66535680313785
 30
0.0000000000000107
  0
VERTEX
  5
12B
  8
LAYER9
 10
104.9416372738309
 20
41.44039389427504
 30
0.0000000000000107
  0
VERTEX
  5
12C
  8
LAYER9
 10
105.0523909818623
 20
41.23311033048438
 30
0.0000000000000107
  0
VERTEX
  5
12D
  8
LAYER9
 10
105.2014537074596
 20
41.05145439117109
 30
0.0000000000000107
  0
VERTEX
  5
12E
  8
LAYER9
 10
105.3831096467729
 20
40.90239166557378
 30
0.0000000000000107
  0
VERTEX
  5
12F
  8
LAYER9
 10
105.5903932105635
 20
40.79163795754243
 30
0.0000000000000107
  0
VERTEX
  5
130
  8
LAYER9
 10
105.8153561194264
 20
40.72344011328376
 30
0.0000000000000107
  0
VERTEX
  5
131
  8
LAYER9
 10
106.049372180224
 20
40.70041317622467
 30
0.0000000000000107
  0
SEQEND
  5
1F3
  8
LAYER9
  0
LINE
  5
95
  8
LAYER9
 10
97.84517333241776
 20
19.7014881082444
 30
0.0
 11
97.8451731254106
 21
14.75981347897197
 31
0.0
  0
POLYLINE
  5
96
  8
LAYER9
 66
     1
 10
0.0
 20
0.0
 30
0.0000000000000026
  0
VERTEX
  5
132
  8
LAYER9
 10
99.04413307057334
 20
20.90044774441992
 30
0.0000000000000026
  0
VERTEX
  5
133
  8
LAYER9
 10
98.81011700859399
 20
20.87742081761228
 30
0.0000000000000026
  0
VERTEX
  5
134
  8
LAYER9
 10
98.58515409665713
 20
20.80922298316643
 30
0.0000000000000026
  0
VERTEX
  5
135
  8
LAYER9
 10
98.37787052801798
 20
20.69846928413303
 30
0.0000000000000026
  0
VERTEX
  5
136
  8
LAYER9
 10
98.19621458226764
 20
20.54940656637377
 30
0.0000000000000026
  0
VERTEX
  5
137
  8
LAYER9
 10
98.0471518488916
 20
20.36775063343808
 30
0.0000000000000026
  0
VERTEX
  5
138
  8
LAYER9
 10
97.9363981320381
 20
20.16046707432001
 30
0.0000000000000026
  0
VERTEX
  5
139
  8
LAYER9
 10
97.8682002782521
 20
19.93550416824563
 30
0.0000000000000026
  0
VERTEX
  5
13A
  8
LAYER9
 10
97.8451733313259
 20
19.70148810824534
 30
0.0000000000000026
  0
SEQEND
  5
1F4
  8
LAYER9
  0
LINE
  5
97
  8
LAYER9
 10
114.9858077128832
 20
20.90044704867905
 30
0.0
 11
99.0441330705724
 21
20.90044774551178
 31
0.0
  0
POLYLINE
  5
98
  8
LAYER9
 66
     1
 10
0.0
 20
0.0
 30
-0.0000000000000102
  0
VERTEX
  5
13B
  8
LAYER9
 10
116.1847673472043
 20
19.70148730659587
 30
-0.0000000000000102
  0
VERTEX
  5
13C
  8
LAYER9
 10
116.1617404207392
 20
19.93550336859592
 30
-0.0000000000000102
  0
VERTEX
  5
13D
  8
LAYER9
 10
116.0935425866279
 20
20.16046628062061
 30
-0.0000000000000102
  0
VERTEX
  5
13E
  8
LAYER9
 10
115.982788887908
 20
20.36774984941234
 30
-0.0000000000000102
  0
VERTEX
  5
13F
  8
LAYER9
 10
115.8337261704286
 20
20.54940579537503
 30
-0.0000000000000102
  0
VERTEX
  5
140
  8
LAYER9
 10
115.6520702377279
 20
20.6984685290159
 30
-0.0000000000000102
  0
VERTEX
  5
141
  8
LAYER9
 10
115.4447866787899
 20
20.80922224617721
 30
-0.0000000000000102
  0
VERTEX
  5
142
  8
LAYER9
 10
115.2198237728331
 20
20.87742010030263
 30
-0.0000000000000102
  0
VERTEX
  5
143
  8
LAYER9
 10
114.9858077128823
 20
20.90044704758721
 30
-0.0000000000000102
  0
SEQEND
  5
1F5
  8
LAYER9
  0
LINE
  5
99
  8
LAYER9
 10
116.1847671211047
 20
14.75981267721386
 30
0.0
 11
116.1847673461125
 21
19.70148730659492
 31
0.0
  0
POLYLINE
  5
9A
  8
LAYER9
 66
     1
 10
0.0
 20
0.0
 30
-0.0000000000000033
  0
VERTEX
  5
144
  8
LAYER9
 10
114.9858073790216
 20
13.56085304289274
 30
-0.0000000000000033
  0
VERTEX
  5
145
  8
LAYER9
 10
115.2198234406374
 20
13.58387996974217
 30
-0.0000000000000033
  0
VERTEX
  5
146
  8
LAYER9
 10
115.4447863523765
 20
13.65207780413898
 30
-0.0000000000000033
  0
VERTEX
  5
147
  8
LAYER9
 10
115.6520699209924
 20
13.76283150303471
 30
-0.0000000000000033
  0
VERTEX
  5
148
  8
LAYER9
 10
115.8337258668958
 20
13.91189422057343
 30
-0.0000000000000033
  0
VERTEX
  5
149
  8
LAYER9
 10
115.982788600596
 20
14.09355015321483
 30
-0.0000000000000033
  0
VERTEX
  5
14A
  8
LAYER9
 10
116.0935423179331
 20
14.30083371197694
 30
-0.0000000000000033
  0
VERTEX
  5
14B
  8
LAYER9
 10
116.1617401723441
 20
14.52579661764825
 30
-0.0000000000000033
  0
VERTEX
  5
14C
  8
LAYER9
 10
116.1847671200129
 20
14.75981267721481
 30
-0.0000000000000033
  0
SEQEND
  5
1F6
  8
LAYER9
  0
LINE
  5
9B
  8
LAYER9
 10
99.04413276267798
 20
13.56085374081731
 30
0.0
 11
114.9858073790206
 21
13.56085304398458
 31
0.0
  0
POLYLINE
  5
9C
  8
LAYER9
 66
     1
 10
0.0
 20
0.0
 30
0.0000000000000095
  0
VERTEX
  5
14D
  8
LAYER9
 10
97.84517312650244
 20
14.75981347897291
 30
0.0000000000000095
  0
VERTEX
  5
14E
  8
LAYER9
 10
97.86820005369435
 20
14.52579741737784
 30
0.0000000000000095
  0
VERTEX
  5
14F
  8
LAYER9
 10
97.93639788842572
 20
14.30083450572649
 30
0.0000000000000095
  0
VERTEX
  5
150
  8
LAYER9
 10
98.04715158763493
 20
14.09355093726314
 30
0.0000000000000095
  0
VERTEX
  5
151
  8
LAYER9
 10
98.19621430545355
 20
13.91189499157218
 30
0.0000000000000095
  0
VERTEX
  5
152
  8
LAYER9
 10
98.37787023832988
 20
13.76283225813677
 30
0.0000000000000095
  0
VERTEX
  5
153
  8
LAYER9
 10
98.58515379727214
 20
13.65207854110745
 30
0.0000000000000095
  0
VERTEX
  5
154
  8
LAYER9
 10
98.81011670306101
 20
13.58388068703595
 30
0.0000000000000095
  0
VERTEX
  5
155
  8
LAYER9
 10
99.04413276267702
 20
13.56085373972547
 30
0.0000000000000095
  0
SEQEND
  5
1F7
  8
LAYER9
  0
LINE
  5
9D
  8
LAYER9
 10
75.84517333241779
 20
19.70148810824438
 30
0.0
 11
75.84517312541062
 21
14.75981347897197
 31
0.0
  0
POLYLINE
  5
9E
  8
LAYER9
 66
     1
 10
0.0
 20
0.0
 30
0.0000000000000018
  0
VERTEX
  5
156
  8
LAYER9
 10
77.04413307057337
 20
20.90044774441993
 30
0.0000000000000018
  0
VERTEX
  5
157
  8
LAYER9
 10
76.81011700859402
 20
20.87742081761228
 30
0.0000000000000018
  0
VERTEX
  5
158
  8
LAYER9
 10
76.58515409665716
 20
20.80922298316643
 30
0.0000000000000018
  0
VERTEX
  5
159
  8
LAYER9
 10
76.37787052801801
 20
20.69846928413303
 30
0.0000000000000018
  0
VERTEX
  5
15A
  8
LAYER9
 10
76.19621458226767
 20
20.54940656637377
 30
0.0000000000000018
  0
VERTEX
  5
15B
  8
LAYER9
 10
76.04715184889163
 20
20.36775063343808
 30
0.0000000000000018
  0
VERTEX
  5
15C
  8
LAYER9
 10
75.93639813203811
 20
20.16046707432001
 30
0.0000000000000018
  0
VERTEX
  5
15D
  8
LAYER9
 10
75.86820027825215
 20
19.93550416824563
 30
0.0000000000000018
  0
VERTEX
  5
15E
  8
LAYER9
 10
75.84517333132594
 20
19.70148810824534
 30
0.0000000000000018
  0
SEQEND
  5
1F8
  8
LAYER9
  0
LINE
  5
9F
  8
LAYER9
 10
92.98580771288324
 20
20.90044704867904
 30
0.0
 11
77.04413307057243
 21
20.90044774551177
 31
0.0
  0
POLYLINE
  5
A0
  8
LAYER9
 66
     1
 10
0.0
 20
0.0
 30
-0.0000000000000093
  0
VERTEX
  5
15F
  8
LAYER9
 10
94.18476734720431
 20
19.70148730659585
 30
-0.0000000000000093
  0
VERTEX
  5
160
  8
LAYER9
 10
94.16174042073918
 20
19.93550336859591
 30
-0.0000000000000093
  0
VERTEX
  5
161
  8
LAYER9
 10
94.09354258662788
 20
20.1604662806206
 30
-0.0000000000000093
  0
VERTEX
  5
162
  8
LAYER9
 10
93.98278888790796
 20
20.36774984941232
 30
-0.0000000000000093
  0
VERTEX
  5
163
  8
LAYER9
 10
93.8337261704286
 20
20.54940579537501
 30
-0.0000000000000093
  0
VERTEX
  5
164
  8
LAYER9
 10
93.65207023772786
 20
20.69846852901589
 30
-0.0000000000000093
  0
VERTEX
  5
165
  8
LAYER9
 10
93.44478667878995
 20
20.80922224617719
 30
-0.0000000000000093
  0
VERTEX
  5
166
  8
LAYER9
 10
93.21982377283312
 20
20.87742010030262
 30
-0.0000000000000093
  0
VERTEX
  5
167
  8
LAYER9
 10
92.98580771288229
 20
20.9004470475872
 30
-0.0000000000000093
  0
SEQEND
  5
1F9
  8
LAYER9
  0
LINE
  5
A1
  8
LAYER9
 10
94.18476734611251
 20
19.7014873065949
 30
0.0
 11
94.18476712110476
 21
14.75981267721385
 31
0.0
  0
POLYLINE
  5
A2
  8
LAYER9
 66
     1
 10
0.0
 20
0.0
 30
-0.0000000000000024
  0
VERTEX
  5
168
  8
LAYER9
 10
92.98580737902155
 20
13.56085304289276
 30
-0.0000000000000024
  0
VERTEX
  5
169
  8
LAYER9
 10
93.21982344063734
 20
13.58387996974218
 30
-0.0000000000000024
  0
VERTEX
  5
16A
  8
LAYER9
 10
93.44478635237651
 20
13.65207780413899
 30
-0.0000000000000024
  0
VERTEX
  5
16B
  8
LAYER9
 10
93.65206992099243
 20
13.76283150303472
 30
-0.0000000000000024
  0
VERTEX
  5
16C
  8
LAYER9
 10
93.83372586689575
 20
13.91189422057344
 30
-0.0000000000000024
  0
VERTEX
  5
16D
  8
LAYER9
 10
93.982788600596
 20
14.09355015321484
 30
-0.0000000000000024
  0
VERTEX
  5
16E
  8
LAYER9
 10
94.09354231793311
 20
14.30083371197694
 30
-0.0000000000000024
  0
VERTEX
  5
16F
  8
LAYER9
 10
94.16174017234405
 20
14.52579661764826
 30
-0.0000000000000024
  0
VERTEX
  5
170
  8
LAYER9
 10
94.1847671200129
 20
14.75981267721481
 30
-0.0000000000000024
  0
SEQEND
  5
1FA
  8
LAYER9
  0
LINE
  5
A3
  8
LAYER9
 10
77.04413276267799
 20
13.56085374081732
 30
0.0
 11
92.98580737902061
 21
13.56085304398459
 31
0.0
  0
POLYLINE
  5
A4
  8
LAYER9
 66
     1
 10
0.0
 20
0.0
 30
0.0000000000000104
  0
VERTEX
  5
171
  8
LAYER9
 10
75.84517312650246
 20
14.75981347897292
 30
0.0000000000000104
  0
VERTEX
  5
172
  8
LAYER9
 10
75.86820005369437
 20
14.52579741737785
 30
0.0000000000000104
  0
VERTEX
  5
173
  8
LAYER9
 10
75.93639788842573
 20
14.3008345057265
 30
0.0000000000000104
  0
VERTEX
  5
174
  8
LAYER9
 10
76.04715158763494
 20
14.09355093726315
 30
0.0000000000000104
  0
VERTEX
  5
175
  8
LAYER9
 10
76.19621430545357
 20
13.91189499157219
 30
0.0000000000000104
  0
VERTEX
  5
176
  8
LAYER9
 10
76.37787023832989
 20
13.76283225813678
 30
0.0000000000000104
  0
VERTEX
  5
177
  8
LAYER9
 10
76.58515379727216
 20
13.65207854110746
 30
0.0000000000000104
  0
VERTEX
  5
178
  8
LAYER9
 10
76.81011670306103
 20
13.58388068703596
 30
0.0000000000000104
  0
VERTEX
  5
179
  8
LAYER9
 10
77.04413276267704
 20
13.56085373972548
 30
0.0000000000000104
  0
SEQEND
  5
1FB
  8
LAYER9
  0
LINE
  5
A5
  8
LAYER9
 10
53.82517333241776
 20
19.70148810824438
 30
0.0
 11
53.8251731254106
 21
14.75981347897198
 31
0.0
  0
POLYLINE
  5
A6
  8
LAYER9
 66
     1
 10
0.0
 20
0.0
 30
0.0000000000000028
  0
VERTEX
  5
17A
  8
LAYER9
 10
55.02413307057262
 20
20.90044774441991
 30
0.0000000000000028
  0
VERTEX
  5
17B
  8
LAYER9
 10
54.79011700859338
 20
20.87742081761214
 30
0.0000000000000028
  0
VERTEX
  5
17C
  8
LAYER9
 10
54.56515409665665
 20
20.8092229831662
 30
0.0000000000000028
  0
VERTEX
  5
17D
  8
LAYER9
 10
54.35787052801761
 20
20.69846928413276
 30
0.0000000000000028
  0
VERTEX
  5
17E
  8
LAYER9
 10
54.17621458226742
 20
20.5494065663735
 30
0.0000000000000028
  0
VERTEX
  5
17F
  8
LAYER9
 10
54.02715184889149
 20
20.36775063343783
 30
0.0000000000000028
  0
VERTEX
  5
180
  8
LAYER9
 10
53.91639813203805
 20
20.16046707431983
 30
0.0000000000000028
  0
VERTEX
  5
181
  8
LAYER9
 10
53.84820027825211
 20
19.93550416824552
 30
0.0000000000000028
  0
VERTEX
  5
182
  8
LAYER9
 10
53.82517333132594
 20
19.70148810824533
 30
0.0000000000000028
  0
SEQEND
  5
1FC
  8
LAYER9
  0
LINE
  5
A7
  8
LAYER9
 10
70.96580771288323
 20
20.90044704867903
 30
0.0
 11
55.02413307057168
 21
20.90044774551177
 31
0.0
  0
POLYLINE
  5
A8
  8
LAYER9
 66
     1
 10
0.0
 20
0.0
 30
-0.00000000000001
  0
VERTEX
  5
183
  8
LAYER9
 10
72.16476734720432
 20
19.70148730659584
 30
-0.00000000000001
  0
VERTEX
  5
184
  8
LAYER9
 10
72.14174042073915
 20
19.9355033685959
 30
-0.00000000000001
  0
VERTEX
  5
185
  8
LAYER9
 10
72.07354258662787
 20
20.16046628062058
 30
-0.00000000000001
  0
VERTEX
  5
186
  8
LAYER9
 10
71.96278888790795
 20
20.36774984941231
 30
-0.00000000000001
  0
VERTEX
  5
187
  8
LAYER9
 10
71.81372617042861
 20
20.549405795375
 30
-0.00000000000001
  0
VERTEX
  5
188
  8
LAYER9
 10
71.63207023772786
 20
20.69846852901587
 30
-0.00000000000001
  0
VERTEX
  5
189
  8
LAYER9
 10
71.42478667878994
 20
20.80922224617718
 30
-0.00000000000001
  0
VERTEX
  5
18A
  8
LAYER9
 10
71.19982377283311
 20
20.87742010030261
 30
-0.00000000000001
  0
VERTEX
  5
18B
  8
LAYER9
 10
70.96580771288228
 20
20.90044704758719
 30
-0.00000000000001
  0
SEQEND
  5
1FD
  8
LAYER9
  0
LINE
  5
A9
  8
LAYER9
 10
72.16476712110475
 20
14.75981267721389
 30
0.0
 11
72.16476734611248
 21
19.7014873065949
 31
0.0
  0
POLYLINE
  5
AA
  8
LAYER9
 66
     1
 10
0.0
 20
0.0
 30
-0.0000000000000032
  0
VERTEX
  5
18C
  8
LAYER9
 10
70.96580737902156
 20
13.56085304289276
 30
-0.0000000000000032
  0
VERTEX
  5
18D
  8
LAYER9
 10
71.19982344063733
 20
13.58387996974218
 30
-0.0000000000000032
  0
VERTEX
  5
18E
  8
LAYER9
 10
71.4247863523765
 20
13.652077804139
 30
-0.0000000000000032
  0
VERTEX
  5
18F
  8
LAYER9
 10
71.63206992099244
 20
13.76283150303473
 30
-0.0000000000000032
  0
VERTEX
  5
190
  8
LAYER9
 10
71.81372586689575
 20
13.91189422057345
 30
-0.0000000000000032
  0
VERTEX
  5
191
  8
LAYER9
 10
71.962788600596
 20
14.09355015321486
 30
-0.0000000000000032
  0
VERTEX
  5
192
  8
LAYER9
 10
72.07354231793312
 20
14.30083371197696
 30
-0.0000000000000032
  0
VERTEX
  5
193
  8
LAYER9
 10
72.14174017234404
 20
14.52579661764828
 30
-0.0000000000000032
  0
VERTEX
  5
194
  8
LAYER9
 10
72.1647671200129
 20
14.75981267721484
 30
-0.0000000000000032
  0
SEQEND
  5
1FE
  8
LAYER9
  0
LINE
  5
AB
  8
LAYER9
 10
55.02413276267798
 20
13.56085374081732
 30
0.0
 11
70.96580737902062
 21
13.5608530439846
 31
0.0
  0
POLYLINE
  5
AC
  8
LAYER9
 66
     1
 10
0.0
 20
0.0
 30
0.0000000000000097
  0
VERTEX
  5
195
  8
LAYER9
 10
53.82517312650245
 20
14.75981347897293
 30
0.0000000000000097
  0
VERTEX
  5
196
  8
LAYER9
 10
53.84820005369436
 20
14.52579741737786
 30
0.0000000000000097
  0
VERTEX
  5
197
  8
LAYER9
 10
53.91639788842573
 20
14.30083450572651
 30
0.0000000000000097
  0
VERTEX
  5
198
  8
LAYER9
 10
54.02715158763495
 20
14.09355093726316
 30
0.0000000000000097
  0
VERTEX
  5
199
  8
LAYER9
 10
54.17621430545357
 20
13.9118949915722
 30
0.0000000000000097
  0
VERTEX
  5
19A
  8
LAYER9
 10
54.3578702383299
 20
13.76283225813679
 30
0.0000000000000097
  0
VERTEX
  5
19B
  8
LAYER9
 10
54.56515379727216
 20
13.65207854110747
 30
0.0000000000000097
  0
VERTEX
  5
19C
  8
LAYER9
 10
54.79011670306102
 20
13.58388068703597
 30
0.0000000000000097
  0
VERTEX
  5
19D
  8
LAYER9
 10
55.02413276267703
 20
13.56085373972549
 30
0.0000000000000097
  0
SEQEND
  5
1FF
  8
LAYER9
  0
LINE
  5
AD
  8
LAYER9
 10
31.84517333241777
 20
19.70148810824438
 30
0.0
 11
31.84517312541061
 21
14.75981347897199
 31
0.0
  0
POLYLINE
  5
AE
  8
LAYER9
 66
     1
 10
0.0
 20
0.0
 30
0.000000000000002
  0
VERTEX
  5
19E
  8
LAYER9
 10
33.04413307057262
 20
20.90044774441991
 30
0.000000000000002
  0
VERTEX
  5
19F
  8
LAYER9
 10
32.81011700859338
 20
20.87742081761214
 30
0.000000000000002
  0
VERTEX
  5
1A0
  8
LAYER9
 10
32.58515409665664
 20
20.8092229831662
 30
0.000000000000002
  0
VERTEX
  5
1A1
  8
LAYER9
 10
32.37787052801761
 20
20.69846928413276
 30
0.000000000000002
  0
VERTEX
  5
1A2
  8
LAYER9
 10
32.19621458226742
 20
20.5494065663735
 30
0.000000000000002
  0
VERTEX
  5
1A3
  8
LAYER9
 10
32.04715184889147
 20
20.36775063343784
 30
0.000000000000002
  0
VERTEX
  5
1A4
  8
LAYER9
 10
31.93639813203805
 20
20.16046707431983
 30
0.000000000000002
  0
VERTEX
  5
1A5
  8
LAYER9
 10
31.86820027825212
 20
19.93550416824553
 30
0.000000000000002
  0
VERTEX
  5
1A6
  8
LAYER9
 10
31.84517333132593
 20
19.70148810824533
 30
0.000000000000002
  0
SEQEND
  5
200
  8
LAYER9
  0
LINE
  5
AF
  8
LAYER9
 10
48.9858077128832
 20
20.90044704867904
 30
0.0
 11
33.04413307057168
 21
20.90044774551176
 31
0.0
  0
POLYLINE
  5
B0
  8
LAYER9
 66
     1
 10
0.0
 20
0.0
 30
-0.0000000000000091
  0
VERTEX
  5
1A7
  8
LAYER9
 10
50.18476734720431
 20
19.70148730659585
 30
-0.0000000000000091
  0
VERTEX
  5
1A8
  8
LAYER9
 10
50.16174042073916
 20
19.93550336859591
 30
-0.0000000000000091
  0
VERTEX
  5
1A9
  8
LAYER9
 10
50.09354258662786
 20
20.1604662806206
 30
-0.0000000000000091
  0
VERTEX
  5
1AA
  8
LAYER9
 10
49.98278888790794
 20
20.36774984941232
 30
-0.0000000000000091
  0
VERTEX
  5
1AB
  8
LAYER9
 10
49.83372617042859
 20
20.54940579537502
 30
-0.0000000000000091
  0
VERTEX
  5
1AC
  8
LAYER9
 10
49.65207023772783
 20
20.69846852901589
 30
-0.0000000000000091
  0
VERTEX
  5
1AD
  8
LAYER9
 10
49.44478667878992
 20
20.80922224617719
 30
-0.0000000000000091
  0
VERTEX
  5
1AE
  8
LAYER9
 10
49.2198237728331
 20
20.87742010030261
 30
-0.0000000000000091
  0
VERTEX
  5
1AF
  8
LAYER9
 10
48.98580771288226
 20
20.90044704758719
 30
-0.0000000000000091
  0
SEQEND
  5
201
  8
LAYER9
  0
LINE
  5
B1
  8
LAYER9
 10
50.18476712110472
 20
14.75981267721389
 30
0.0
 11
50.18476734611248
 21
19.7014873065949
 31
0.0
  0
POLYLINE
  5
B2
  8
LAYER9
 66
     1
 10
0.0
 20
0.0
 30
-0.0000000000000022
  0
VERTEX
  5
1B0
  8
LAYER9
 10
48.98580737902154
 20
13.56085304289278
 30
-0.0000000000000022
  0
VERTEX
  5
1B1
  8
LAYER9
 10
49.21982344063733
 20
13.5838799697422
 30
-0.0000000000000022
  0
VERTEX
  5
1B2
  8
LAYER9
 10
49.4447863523765
 20
13.65207780413902
 30
-0.0000000000000022
  0
VERTEX
  5
1B3
  8
LAYER9
 10
49.65206992099242
 20
13.76283150303475
 30
-0.0000000000000022
  0
VERTEX
  5
1B4
  8
LAYER9
 10
49.83372586689575
 20
13.91189422057347
 30
-0.0000000000000022
  0
VERTEX
  5
1B5
  8
LAYER9
 10
49.98278860059598
 20
14.09355015321487
 30
-0.0000000000000022
  0
VERTEX
  5
1B6
  8
LAYER9
 10
50.0935423179331
 20
14.30083371197697
 30
-0.0000000000000022
  0
VERTEX
  5
1B7
  8
LAYER9
 10
50.16174017234403
 20
14.52579661764829
 30
-0.0000000000000022
  0
VERTEX
  5
1B8
  8
LAYER9
 10
50.18476712001288
 20
14.75981267721484
 30
-0.0000000000000022
  0
SEQEND
  5
202
  8
LAYER9
  0
LINE
  5
B3
  8
LAYER9
 10
33.044132762678
 20
13.56085374081734
 30
0.0
 11
48.9858073790206
 21
13.56085304398461
 31
0.0
  0
POLYLINE
  5
B4
  8
LAYER9
 66
     1
 10
0.0
 20
0.0
 30
0.0000000000000106
  0
VERTEX
  5
1B9
  8
LAYER9
 10
31.84517312650245
 20
14.75981347897294
 30
0.0000000000000106
  0
VERTEX
  5
1BA
  8
LAYER9
 10
31.86820005369437
 20
14.52579741737786
 30
0.0000000000000106
  0
VERTEX
  5
1BB
  8
LAYER9
 10
31.93639788842574
 20
14.30083450572652
 30
0.0000000000000106
  0
VERTEX
  5
1BC
  8
LAYER9
 10
32.04715158763495
 20
14.09355093726317
 30
0.0000000000000106
  0
VERTEX
  5
1BD
  8
LAYER9
 10
32.19621430545357
 20
13.91189499157221
 30
0.0000000000000106
  0
VERTEX
  5
1BE
  8
LAYER9
 10
32.3778702383299
 20
13.7628322581368
 30
0.0000000000000106
  0
VERTEX
  5
1BF
  8
LAYER9
 10
32.58515379727216
 20
13.65207854110748
 30
0.0000000000000106
  0
VERTEX
  5
1C0
  8
LAYER9
 10
32.81011670306103
 20
13.58388068703598
 30
0.0000000000000106
  0
VERTEX
  5
1C1
  8
LAYER9
 10
33.04413276267704
 20
13.5608537397255
 30
0.0000000000000106
  0
SEQEND
  5
203
  8
LAYER9
  0
LINE
  5
B5
  8
LAYER9
 10
9.825173332417787
 20
19.70148810824438
 30
0.0
 11
9.825173125410625
 21
14.759813478972
 31
0.0
  0
POLYLINE
  5
B6
  8
LAYER9
 66
     1
 10
0.0
 20
0.0
 30
0.0000000000000029
  0
VERTEX
  5
1C2
  8
LAYER9
 10
11.0241330705734
 20
20.90044774441991
 30
0.0000000000000029
  0
VERTEX
  5
1C3
  8
LAYER9
 10
10.79011700859404
 20
20.87742081761226
 30
0.0000000000000029
  0
VERTEX
  5
1C4
  8
LAYER9
 10
10.56515409665718
 20
20.80922298316641
 30
0.0000000000000029
  0
VERTEX
  5
1C5
  8
LAYER9
 10
10.35787052801802
 20
20.69846928413302
 30
0.0000000000000029
  0
VERTEX
  5
1C6
  8
LAYER9
 10
10.1762145822677
 20
20.54940656637376
 30
0.0000000000000029
  0
VERTEX
  5
1C7
  8
LAYER9
 10
10.02715184889165
 20
20.36775063343806
 30
0.0000000000000029
  0
VERTEX
  5
1C8
  8
LAYER9
 10
9.91639813203814
 20
20.16046707432
 30
0.0000000000000029
  0
VERTEX
  5
1C9
  8
LAYER9
 10
9.848200278252152
 20
19.93550416824561
 30
0.0000000000000029
  0
VERTEX
  5
1CA
  8
LAYER9
 10
9.82517333132595
 20
19.70148810824532
 30
0.0000000000000029
  0
SEQEND
  5
204
  8
LAYER9
  0
LINE
  5
B7
  8
LAYER9
 10
26.96580771288321
 20
20.90044704867903
 30
0.0
 11
11.02413307057245
 21
20.90044774551174
 31
0.0
  0
POLYLINE
  5
B8
  8
LAYER9
 66
     1
 10
0.0
 20
0.0
 30
-0.0000000000000099
  0
VERTEX
  5
1CB
  8
LAYER9
 10
28.16476734720431
 20
19.70148730659583
 30
-0.0000000000000099
  0
VERTEX
  5
1CC
  8
LAYER9
 10
28.14174042073916
 20
19.93550336859589
 30
-0.0000000000000099
  0
VERTEX
  5
1CD
  8
LAYER9
 10
28.07354258662787
 20
20.16046628062058
 30
-0.0000000000000099
  0
VERTEX
  5
1CE
  8
LAYER9
 10
27.96278888790795
 20
20.36774984941231
 30
-0.0000000000000099
  0
VERTEX
  5
1CF
  8
LAYER9
 10
27.81372617042859
 20
20.549405795375
 30
-0.0000000000000099
  0
VERTEX
  5
1D0
  8
LAYER9
 10
27.63207023772784
 20
20.69846852901587
 30
-0.0000000000000099
  0
VERTEX
  5
1D1
  8
LAYER9
 10
27.42478667878992
 20
20.80922224617717
 30
-0.0000000000000099
  0
VERTEX
  5
1D2
  8
LAYER9
 10
27.1998237728331
 20
20.8774201003026
 30
-0.0000000000000099
  0
VERTEX
  5
1D3
  8
LAYER9
 10
26.96580771288227
 20
20.90044704758718
 30
-0.0000000000000099
  0
SEQEND
  5
205
  8
LAYER9
  0
LINE
  5
B9
  8
LAYER9
 10
28.1647671211047
 20
14.7598126772139
 30
0.0
 11
28.16476734611244
 21
19.70148730659489
 31
0.0
  0
POLYLINE
  5
BA
  8
LAYER9
 66
     1
 10
0.0
 20
0.0
 30
-0.000000000000003
  0
VERTEX
  5
1D4
  8
LAYER9
 10
26.96580737902154
 20
13.56085304289278
 30
-0.000000000000003
  0
VERTEX
  5
1D5
  8
LAYER9
 10
27.19982344063733
 20
13.5838799697422
 30
-0.000000000000003
  0
VERTEX
  5
1D6
  8
LAYER9
 10
27.4247863523765
 20
13.65207780413902
 30
-0.000000000000003
  0
VERTEX
  5
1D7
  8
LAYER9
 10
27.63206992099241
 20
13.76283150303475
 30
-0.000000000000003
  0
VERTEX
  5
1D8
  8
LAYER9
 10
27.81372586689574
 20
13.91189422057347
 30
-0.000000000000003
  0
VERTEX
  5
1D9
  8
LAYER9
 10
27.96278860059598
 20
14.09355015321487
 30
-0.000000000000003
  0
VERTEX
  5
1DA
  8
LAYER9
 10
28.07354231793309
 20
14.30083371197697
 30
-0.000000000000003
  0
VERTEX
  5
1DB
  8
LAYER9
 10
28.14174017234403
 20
14.52579661764829
 30
-0.000000000000003
  0
VERTEX
  5
1DC
  8
LAYER9
 10
28.16476712001288
 20
14.75981267721484
 30
-0.000000000000003
  0
SEQEND
  5
206
  8
LAYER9
  0
LINE
  5
BB
  8
LAYER9
 10
11.02413276267801
 20
13.56085374081735
 30
0.0
 11
26.9658073790206
 21
13.56085304398461
 31
0.0
  0
POLYLINE
  5
BC
  8
LAYER9
 66
     1
 10
0.0
 20
0.0
 30
0.0000000000000098
  0
VERTEX
  5
1DD
  8
LAYER9
 10
9.825173126502465
 20
14.75981347897295
 30
0.0000000000000098
  0
VERTEX
  5
1DE
  8
LAYER9
 10
9.848200053694386
 20
14.52579741737787
 30
0.0000000000000098
  0
VERTEX
  5
1DF
  8
LAYER9
 10
9.916397888425754
 20
14.30083450572653
 30
0.0000000000000098
  0
VERTEX
  5
1E0
  8
LAYER9
 10
10.02715158763496
 20
14.09355093726317
 30
0.0000000000000098
  0
VERTEX
  5
1E1
  8
LAYER9
 10
10.17621430545359
 20
13.91189499157221
 30
0.0000000000000098
  0
VERTEX
  5
1E2
  8
LAYER9
 10
10.35787023832992
 20
13.76283225813681
 30
0.0000000000000098
  0
VERTEX
  5
1E3
  8
LAYER9
 10
10.56515379727218
 20
13.65207854110748
 30
0.0000000000000098
  0
VERTEX
  5
1E4
  8
LAYER9
 10
10.79011670306105
 20
13.58388068703598
 30
0.0000000000000098
  0
VERTEX
  5
1E5
  8
LAYER9
 10
11.02413276267706
 20
13.56085373972551
 30
0.0000000000000098
  0
SEQEND
  5
207
  8
LAYER9
  0
ENDSEC
  0
EOF
